<svg xmlns="http://www.w3.org/2000/svg" xmlns:xlink="http://www.w3.org/1999/xlink" width="67.664" height="64.281" viewBox="0 0 67.664 64.281">
  <defs>
    <filter id="Rounded_Rectangle_3" x="0" y="0" width="67.664" height="64.281" filterUnits="userSpaceOnUse">
      <feOffset dy="3" input="SourceAlpha"/>
      <feGaussianBlur stdDeviation="1.5" result="blur"/>
      <feFlood flood-color="#0e0f0f" flood-opacity="0.251"/>
      <feComposite operator="in" in2="blur"/>
      <feComposite in="SourceGraphic"/>
    </filter>
  </defs>
  <g id="Composant_33_1" data-name="Composant 33 – 1" transform="translate(4.5 1.5)">
    <g transform="matrix(1, 0, 0, 1, -4.5, -1.5)" filter="url(#Rounded_Rectangle_3)">
      <g id="Rounded_Rectangle_3-2" data-name="Rounded Rectangle 3" transform="translate(4.5 1.5)" fill="#ffc529" stroke="#ff6d6d" stroke-linejoin="round" stroke-width="1">
        <rect width="58.664" height="55.281" rx="3" stroke="none"/>
        <rect x="0.5" y="0.5" width="57.664" height="54.281" rx="2.5" fill="none"/>
      </g>
    </g>
    <path id="_10" data-name="10" d="M1468.812,2887.032s-4.635-8.464-4.622-8.45c.04.045-7.7-4.609-7.7-4.609s22.991-11.09,23.882-11.522c.578-.24.939.288.771.769C1480.946,2863.6,1468.812,2887.032,1468.812,2887.032Zm9.3-20.91-12.372,11.719c.672,1.517,3.069,6.118,3.069,6.118Zm-13.154,10.924.02.02,12.126-11.486-17.538,8.394S1464.95,2877.034,1464.961,2877.046Z" transform="translate(-1439.566 -2847.548)" fill="#fff" stroke="#707070" stroke-linejoin="round" stroke-width="1"/>
  </g>
</svg>
